<svg width="768" height="768" viewBox="0 0 768 768" fill="none" xmlns="http://www.w3.org/2000/svg"><rect width="768" height="768" fill="#fff"/><g><circle cx="384" cy="384" r="300" fill="#000"/><path d="M384 84l36.5 75.5 83.5 12.5-60.5 59 14.5 83.5-74.5-39-74.5 39 14.5-83.5-60.5-59 83.5-12.5L384 84z" fill="#C2A14D"/><path d="M384 684c-166.3 0-300-133.7-300-300s133.7-300 300-300 300 133.7 300 300-133.7 300-300 300zm0-570c-149.6 0-270 120.4-270 270s120.4 270 270 270 270-120.4 270-270-120.4-270-270-270z" fill="#C2A14D"/><g><path d="M220 540c-30-60-60-120-60-180 0-90 60-180 180-180s180 90 180 180c0 60-30 120-60 180" stroke="#C2A14D" stroke-width="12" fill="none"/><path d="M548 540c30-60 60-120 60-180 0-90-60-180-180-180s-180 90-180 180c0 60 30 120 60 180" stroke="#C2A14D" stroke-width="12" fill="none"/></g><g><path d="M270 420c-10-30-10-60 0-90 10-30 30-60 60-60s50 30 60 60c10 30 10 60 0 90-10 30-30 60-60 60s-50-30-60-60z" fill="#fff"/><path d="M498 420c10-30 10-60 0-90-10-30-30-60-60-60s-50 30-60 60c-10 30-10 60 0 90 10 30 30 60 60 60s50-30 60-60z" fill="#fff"/></g><g><path d="M270 420c-10-30-10-60 0-90 10-30 30-60 60-60s50 30 60 60c10 30 10 60 0 90-10 30-30 60-60 60s-50-30-60-60z" stroke="#000" stroke-width="8" fill="none"/><path d="M498 420c10-30 10-60 0-90-10-30-30-60-60-60s-50 30-60 60c-10 30-10 60 0 90 10 30 30 60 60 60s50-30 60-60z" stroke="#000" stroke-width="8" fill="none"/></g><text x="384" y="610" text-anchor="middle" font-family="Montserrat, Arial, sans-serif" font-size="48" font-weight="bold" fill="#fff">ADECAM</text><text x="384" y="660" text-anchor="middle" font-family="Montserrat, Arial, sans-serif" font-size="64" font-weight="bold" fill="#fff">TRIGUEROS</text><text x="384" y="710" text-anchor="middle" font-family="Montserrat, Arial, sans-serif" font-size="36" font-weight="bold" fill="#fff">KICK BOXING</text></g></svg>